<svg height="511pt" viewBox="1 -26 511.999 511" width="511pt"  xmlns="http://www.w3.org/2000/svg">
<path stroke="#737373" d="m332.367188 10.5h-294.734376c-15.199218 0-27.632812 9.039062-27.632812 20.089844v127.246094c0 11.050781 12.433594 20.089843 27.632812 20.089843h32.339844v42.574219l58.546875-42.574219h203.847657c15.199218 0 27.632812-9.039062 27.632812-20.089843v-127.246094c0-11.050782-12.433594-20.089844-27.632812-20.089844zm0 0" fill="#fff"/>
<path stroke="#737373" d="m179.632812 218.5h294.734376c15.199218 0 27.632812 9.902344 27.632812 22.003906v139.363282c0 12.105468-12.433594 22.007812-27.632812 22.007812h-32.339844v46.625l-58.546875-46.628906h-203.847657c-15.199218 0-27.632812-9.902344-27.632812-22.003906v-139.363282c0-12.101562 12.433594-22.003906 27.632812-22.003906zm0 0" fill="#e64d4d"/>
<path fill="#737373" d="m69.972656 230.5c-1.550781 0-3.105468-.359375-4.539062-1.089844-3.351563-1.707031-5.460938-5.148437-5.460938-8.910156v-32.574219h-22.339844c-20.75 0-37.632812-13.496093-37.632812-30.089843v-127.246094c0-16.589844 16.882812-30.089844 37.632812-30.089844h294.734376c20.75 0 37.632812 13.5 37.632812 30.089844v127.246094c0 16.59375-16.882812 30.089843-37.632812 30.089843h-200.59375l-55.921876 40.660157c-1.742187 1.265624-3.804687 1.914062-5.878906 1.914062zm-32.339844-210c-10.09375 0-17.632812 5.328125-17.632812 10.089844v127.246094c0 4.765624 7.539062 10.089843 17.632812 10.089843h32.339844c5.519532 0 10 4.480469 10 10v22.941407l42.667969-31.027344c1.707031-1.242188 3.765625-1.910156 5.878906-1.910156h203.847657c10.09375 0 17.632812-5.328126 17.632812-10.09375v-127.246094c0-4.761719-7.539062-10.089844-17.632812-10.089844zm0 0"/>
<path fill="#737373" d="m300.035156 79.882812h-190.496094c-5.523437 0-10-4.476562-10-10 0-5.523437 4.476563-10 10-10h190.496094c5.523438 0 10 4.476563 10 10 0 5.523438-4.476562 10-10 10zm0 0"/>
<path fill="#737373" d="m69.980469 79.882812c-5.523438 0-10.007813-4.476562-10.007813-10 0-5.523437 4.472656-10 9.996094-10h.011719c5.523437 0 10 4.476563 10 10 0 5.523438-4.476563 10-10 10zm0 0"/>
<path fill="#737373" d="m301.164062 127.46875h-230.078124c-5.523438 0-10-4.476562-10-10s4.476562-10 10-10h230.078124c5.523438 0 10 4.476562 10 10s-4.476562 10-10 10zm0 0"/>
<path fill="#737373" d="m442.03125 458.5c-2.222656 0-4.425781-.742188-6.230469-2.179688l-55.816406-44.449218h-200.351563c-20.75 0-37.632812-14.355469-37.632812-32.003906v-139.363282c0-17.648437 16.882812-32.003906 37.632812-32.003906h294.734376c20.75 0 37.632812 14.355469 37.632812 32.003906v139.363282c0 17.648437-16.882812 32.003906-37.632812 32.003906h-22.339844v36.628906c0 3.839844-2.199219 7.339844-5.65625 9.007812-1.382813.664063-2.867188.992188-4.339844.992188zm-262.398438-230c-9.394531 0-17.632812 5.609375-17.632812 12.003906v139.363282c0 6.394531 8.238281 12.003906 17.632812 12.003906h203.847657c2.261719 0 4.457031.769531 6.226562 2.179687l42.320313 33.703125v-25.882812c0-5.519532 4.476562-10 10-10h32.339844c9.394531 0 17.632812-5.609375 17.632812-12.003906v-139.363282c0-6.394531-8.238281-12.003906-17.632812-12.003906zm0 0"/>
<path fill="#ffffff" d="m442.011719 290.253906h-230.023438c-5.519531 0-10-4.476562-10-10 0-5.519531 4.480469-10 10-10h230.023438c5.519531 0 10 4.480469 10 10 0 5.523438-4.480469 10-10 10zm0 0"/>
<path fill="#ffffff" d="m442.011719 350.207031h-230.023438c-5.519531 0-10-4.480469-10-10 0-5.523437 4.480469-10 10-10h230.023438c5.519531 0 10 4.476563 10 10 0 5.519531-4.480469 10-10 10zm0 0"/>
</svg>